<mxfile host="app.diagrams.net" agent="Mozilla/5.0 (Windows NT 10.0; Win64; x64) AppleWebKit/537.36 (KHTML, like Gecko) Chrome/130.0.0.0 Safari/537.36" version="24.7.5">
  <diagram id="Ht1M8jgEwFfnCIfOTk4-" name="Page-1">
    <mxGraphModel grid="1" page="1" gridSize="10" guides="1" tooltips="1" connect="1" arrows="1" fold="1" pageScale="1" pageWidth="827" pageHeight="1169" math="0" shadow="0">
      <root>
        <mxCell id="0" />
        <mxCell id="1" parent="0" />
        <mxCell id="-QjtrjUzRDEMRZ5MF8oH-46" value="" style="rounded=0;whiteSpace=wrap;html=1;fillColor=#EAEDED;fontSize=22;fontColor=#FFFFFF;strokeColor=none;labelBackgroundColor=none;" vertex="1" parent="1">
          <mxGeometry x="1854" y="1218" width="580" height="1147" as="geometry" />
        </mxCell>
        <mxCell id="-QjtrjUzRDEMRZ5MF8oH-36" value="1" style="rounded=1;whiteSpace=wrap;html=1;fillColor=#007CBD;strokeColor=none;fontColor=#FFFFFF;fontStyle=1;fontSize=22;labelBackgroundColor=none;" vertex="1" parent="1">
          <mxGeometry x="1871" y="1245" width="40" height="38" as="geometry" />
        </mxCell>
        <mxCell id="-QjtrjUzRDEMRZ5MF8oH-37" value="2" style="rounded=1;whiteSpace=wrap;html=1;fillColor=#007CBD;strokeColor=none;fontColor=#FFFFFF;fontStyle=1;fontSize=22;labelBackgroundColor=none;" vertex="1" parent="1">
          <mxGeometry x="1873.5" y="1475" width="40" height="38" as="geometry" />
        </mxCell>
        <mxCell id="-QjtrjUzRDEMRZ5MF8oH-38" value="3" style="rounded=1;whiteSpace=wrap;html=1;fillColor=#007CBD;strokeColor=none;fontColor=#FFFFFF;fontStyle=1;fontSize=22;labelBackgroundColor=none;" vertex="1" parent="1">
          <mxGeometry x="1873.5" y="1665" width="40" height="38" as="geometry" />
        </mxCell>
        <mxCell id="-QjtrjUzRDEMRZ5MF8oH-39" value="4" style="rounded=1;whiteSpace=wrap;html=1;fillColor=#007CBD;strokeColor=none;fontColor=#FFFFFF;fontStyle=1;fontSize=22;labelBackgroundColor=none;" vertex="1" parent="1">
          <mxGeometry x="1871" y="1875" width="40" height="38" as="geometry" />
        </mxCell>
        <mxCell id="-QjtrjUzRDEMRZ5MF8oH-40" value="5" style="rounded=1;whiteSpace=wrap;html=1;fillColor=#007CBD;strokeColor=none;fontColor=#FFFFFF;fontStyle=1;fontSize=22;labelBackgroundColor=none;" vertex="1" parent="1">
          <mxGeometry x="1873.5" y="2145" width="40" height="38" as="geometry" />
        </mxCell>
        <mxCell id="SCVMTBWpLvtzJIhz15lM-6" value="&lt;h3&gt;&lt;font face=&quot;Tahoma&quot;&gt;Usuarios y Actores&lt;/font&gt;&lt;/h3&gt;&lt;ul&gt;&lt;li&gt;&lt;font style=&quot;font-size: 14px;&quot; face=&quot;iVpIeZ7RkajFjcJUjMxw&quot;&gt;&lt;strong style=&quot;&quot;&gt;Descripción&lt;/strong&gt;: Los usuarios y actores de esta arquitectura incluyen tanto clientes humanos (usuarios y pagadores) como dispositivos móviles o sistemas externos que intentan conectarse a los servicios a través de un API.&lt;/font&gt;&lt;/li&gt;&lt;li&gt;&lt;font size=&quot;3&quot; face=&quot;iVpIeZ7RkajFjcJUjMxw&quot;&gt;&lt;strong style=&quot;&quot;&gt;Motivo&lt;/strong&gt;: Es importante definir claramente los actores porque cada uno de estos tendrá diferentes necesidades de autenticación, permisos y métodos de conexión. Tener una arquitectura que se adapte a diferentes tipos de usuarios y dispositivos permite que la solución sea versátil y escalable.&lt;/font&gt;&lt;/li&gt;&lt;/ul&gt;" style="text;html=1;align=left;verticalAlign=top;spacingTop=-4;fontSize=14;labelBackgroundColor=none;whiteSpace=wrap;" vertex="1" parent="1">
          <mxGeometry x="1924" y="1230" width="449" height="225" as="geometry" />
        </mxCell>
        <mxCell id="SCVMTBWpLvtzJIhz15lM-11" value="&lt;h3&gt;Elección de API Gateway, Cognito, GuardDuty, CloudTrail y CloudWatch&lt;/h3&gt;&lt;blockquote style=&quot;margin: 0 0 0 40px; border: none; padding: 0px;&quot;&gt;&lt;h3&gt;&lt;span style=&quot;background-color: initial; font-size: 14px; font-weight: normal;&quot;&gt;&amp;nbsp;API Gateway regula el acceso a los microservicios; Cognito gestiona la autenticación de usuarios; GuardDuty monitorea amenazas de seguridad; CloudTrail registra todas las acciones para auditoría; y CloudWatch supervisa el rendimiento y los logs, asegurando la estabilidad y seguridad de la arquitectura.&lt;/span&gt;&lt;/h3&gt;&lt;/blockquote&gt;" style="text;html=1;align=left;verticalAlign=top;spacingTop=-4;fontSize=14;labelBackgroundColor=none;whiteSpace=wrap;" vertex="1" parent="1">
          <mxGeometry x="1924.5" y="1463" width="449" height="220" as="geometry" />
        </mxCell>
        <mxCell id="SCVMTBWpLvtzJIhz15lM-12" value="&lt;h3&gt;Configuración en Múltiples Zonas de Disponibilidad (AZ) para Alta Disponibilidad&lt;/h3&gt;&lt;ul&gt;&lt;li&gt;&lt;strong&gt;Motivo&lt;/strong&gt;: Utilizar varias zonas de disponibilidad es crucial para asegurar la &lt;strong&gt;alta disponibilidad&lt;/strong&gt; y &lt;strong&gt;resiliencia&lt;/strong&gt; de la arquitectura en caso de fallos en una de las zonas.&lt;/li&gt;&lt;li&gt;&lt;strong&gt;Beneficio&lt;/strong&gt;: Al distribuir los componentes críticos, como los microservicios en EKS, las bases de datos en Amazon Aurora y los balanceadores de carga en varias AZ, se garantiza que la arquitectura pueda seguir funcionando incluso si una zona experimenta una interrupción.&lt;/li&gt;&lt;/ul&gt;" style="text;html=1;align=left;verticalAlign=top;spacingTop=-4;fontSize=14;labelBackgroundColor=none;whiteSpace=wrap;" vertex="1" parent="1">
          <mxGeometry x="1924" y="1655" width="450" height="230" as="geometry" />
        </mxCell>
        <mxCell id="SCVMTBWpLvtzJIhz15lM-13" value="&lt;h3&gt;Elección de Kubernetes (EKS) para Desplegar Microservicios&lt;/h3&gt;&lt;h3&gt;&lt;ul&gt;&lt;li&gt;&lt;strong&gt;Motivo&lt;/strong&gt;: &lt;span style=&quot;font-weight: normal;&quot;&gt;Elegí Kubernetes (EKS) para gestionar los microservicios porque proporciona una plataforma escalable y eficiente para ejecutar contenedores, con soporte nativo para el escalado automático, la gestión de recursos y la implementación de actualizaciones sin interrupciones.&lt;/span&gt;&lt;/li&gt;&lt;li&gt;&lt;strong&gt;Beneficio&lt;/strong&gt;: &lt;span style=&quot;font-weight: normal;&quot;&gt;Kubernetes permite despliegues flexibles y tolerantes a fallos, lo cual es ideal para microservicios que necesitan ser escalados o actualizados sin afectar a otros servicios.&lt;/span&gt;&lt;/li&gt;&lt;/ul&gt;&lt;/h3&gt;" style="text;html=1;align=left;verticalAlign=top;spacingTop=-4;fontSize=14;labelBackgroundColor=none;whiteSpace=wrap;" vertex="1" parent="1">
          <mxGeometry x="1925" y="1859.5" width="449" height="275.5" as="geometry" />
        </mxCell>
        <mxCell id="SCVMTBWpLvtzJIhz15lM-14" value="&lt;h3&gt;Uso de CloudHSM para Operaciones Criptográficas&lt;/h3&gt;&lt;ul&gt;&lt;li&gt;&lt;strong&gt;Motivo&lt;/strong&gt;: CloudHSM proporciona un entorno de hardware seguro y dedicado para manejar claves criptográficas y realizar operaciones de cifrado, lo cual es esencial para asegurar transacciones sensibles y cumplir con requisitos regulatorios en la industria financiera.&lt;/li&gt;&lt;li&gt;&lt;strong&gt;Beneficio&lt;/strong&gt;: Al usar CloudHSM, las claves y operaciones criptográficas se manejan de forma segura y cumplen con normas de seguridad avanzadas. Esto es crucial para proteger datos sensibles de transacciones y asegurar su integridad.&lt;/li&gt;&lt;/ul&gt;" style="text;html=1;align=left;verticalAlign=top;spacingTop=-4;fontSize=14;labelBackgroundColor=none;whiteSpace=wrap;" vertex="1" parent="1">
          <mxGeometry x="1925" y="2135" width="449" height="124" as="geometry" />
        </mxCell>
        <mxCell id="3cQYVndDBGwSY4e2rH-t-1" value="AWS Cloud" style="points=[[0,0],[0.25,0],[0.5,0],[0.75,0],[1,0],[1,0.25],[1,0.5],[1,0.75],[1,1],[0.75,1],[0.5,1],[0.25,1],[0,1],[0,0.75],[0,0.5],[0,0.25]];outlineConnect=0;gradientColor=none;html=1;whiteSpace=wrap;fontSize=12;fontStyle=0;shape=mxgraph.aws4.group;grIcon=mxgraph.aws4.group_aws_cloud_alt;strokeColor=#232F3E;fillColor=none;verticalAlign=top;align=left;spacingLeft=30;fontColor=#232F3E;dashed=0;labelBackgroundColor=none;container=1;pointerEvents=0;collapsible=0;recursiveResize=0;" vertex="1" parent="1">
          <mxGeometry x="414" y="1489" width="1338" height="844.5" as="geometry" />
        </mxCell>
        <mxCell id="3cQYVndDBGwSY4e2rH-t-4" value="Region us-east-1" style="points=[[0,0],[0.25,0],[0.5,0],[0.75,0],[1,0],[1,0.25],[1,0.5],[1,0.75],[1,1],[0.75,1],[0.5,1],[0.25,1],[0,1],[0,0.75],[0,0.5],[0,0.25]];outlineConnect=0;gradientColor=none;html=1;whiteSpace=wrap;fontSize=12;fontStyle=0;container=1;pointerEvents=0;collapsible=0;recursiveResize=0;shape=mxgraph.aws4.group;grIcon=mxgraph.aws4.group_region;strokeColor=#00A4A6;fillColor=none;verticalAlign=top;align=left;spacingLeft=30;fontColor=#147EBA;dashed=1;" vertex="1" parent="3cQYVndDBGwSY4e2rH-t-1">
          <mxGeometry x="39" y="60" width="1260" height="734.5" as="geometry" />
        </mxCell>
        <mxCell id="3cQYVndDBGwSY4e2rH-t-8" value="VPC" style="points=[[0,0],[0.25,0],[0.5,0],[0.75,0],[1,0],[1,0.25],[1,0.5],[1,0.75],[1,1],[0.75,1],[0.5,1],[0.25,1],[0,1],[0,0.75],[0,0.5],[0,0.25]];outlineConnect=0;gradientColor=none;html=1;whiteSpace=wrap;fontSize=12;fontStyle=0;container=1;pointerEvents=0;collapsible=0;recursiveResize=0;shape=mxgraph.aws4.group;grIcon=mxgraph.aws4.group_vpc2;strokeColor=#8C4FFF;fillColor=none;verticalAlign=top;align=left;spacingLeft=30;fontColor=#AAB7B8;dashed=0;" vertex="1" parent="3cQYVndDBGwSY4e2rH-t-4">
          <mxGeometry x="31.5" y="171" width="1170" height="534.5" as="geometry" />
        </mxCell>
        <mxCell id="3cQYVndDBGwSY4e2rH-t-7" value="Availability Zone&amp;nbsp;&amp;nbsp;&lt;span style=&quot;text-align: left;&quot;&gt;us-east-1b&lt;/span&gt;" style="fillColor=none;strokeColor=#147EBA;dashed=1;verticalAlign=top;fontStyle=0;fontColor=#147EBA;whiteSpace=wrap;html=1;" vertex="1" parent="3cQYVndDBGwSY4e2rH-t-8">
          <mxGeometry x="592" y="130" width="548" height="390" as="geometry" />
        </mxCell>
        <mxCell id="3cQYVndDBGwSY4e2rH-t-6" value="Availability Zone&amp;nbsp;&amp;nbsp;&lt;span style=&quot;text-align: left;&quot;&gt;us-east-1a&lt;/span&gt;" style="fillColor=none;strokeColor=#147EBA;dashed=1;verticalAlign=top;fontStyle=0;fontColor=#147EBA;whiteSpace=wrap;html=1;" vertex="1" parent="3cQYVndDBGwSY4e2rH-t-8">
          <mxGeometry x="32" y="130" width="518" height="390" as="geometry" />
        </mxCell>
        <mxCell id="3cQYVndDBGwSY4e2rH-t-12" value="Public subnet" style="points=[[0,0],[0.25,0],[0.5,0],[0.75,0],[1,0],[1,0.25],[1,0.5],[1,0.75],[1,1],[0.75,1],[0.5,1],[0.25,1],[0,1],[0,0.75],[0,0.5],[0,0.25]];outlineConnect=0;gradientColor=none;html=1;whiteSpace=wrap;fontSize=12;fontStyle=0;container=1;pointerEvents=0;collapsible=0;recursiveResize=0;shape=mxgraph.aws4.group;grIcon=mxgraph.aws4.group_security_group;grStroke=0;strokeColor=#7AA116;fillColor=#F2F6E8;verticalAlign=top;align=left;spacingLeft=30;fontColor=#248814;dashed=0;" vertex="1" parent="3cQYVndDBGwSY4e2rH-t-8">
          <mxGeometry x="50" y="164.5" width="481.5" height="130" as="geometry" />
        </mxCell>
        <mxCell id="3cQYVndDBGwSY4e2rH-t-18" value="Public subnet" style="points=[[0,0],[0.25,0],[0.5,0],[0.75,0],[1,0],[1,0.25],[1,0.5],[1,0.75],[1,1],[0.75,1],[0.5,1],[0.25,1],[0,1],[0,0.75],[0,0.5],[0,0.25]];outlineConnect=0;gradientColor=none;html=1;whiteSpace=wrap;fontSize=12;fontStyle=0;container=1;pointerEvents=0;collapsible=0;recursiveResize=0;shape=mxgraph.aws4.group;grIcon=mxgraph.aws4.group_security_group;grStroke=0;strokeColor=#7AA116;fillColor=#F2F6E8;verticalAlign=top;align=left;spacingLeft=30;fontColor=#248814;dashed=0;" vertex="1" parent="3cQYVndDBGwSY4e2rH-t-8">
          <mxGeometry x="612" y="164.5" width="498" height="130" as="geometry" />
        </mxCell>
        <mxCell id="3cQYVndDBGwSY4e2rH-t-31" value="Application Load Balancer" style="outlineConnect=0;dashed=0;verticalLabelPosition=bottom;verticalAlign=top;align=center;html=1;shape=mxgraph.aws3.application_load_balancer;fillColor=#F58534;gradientColor=none;" vertex="1" parent="3cQYVndDBGwSY4e2rH-t-8">
          <mxGeometry x="531.5" y="184.5" width="69" height="72" as="geometry" />
        </mxCell>
        <mxCell id="3cQYVndDBGwSY4e2rH-t-19" value="Internet Gateway" style="outlineConnect=0;dashed=0;verticalLabelPosition=bottom;verticalAlign=top;align=center;html=1;shape=mxgraph.aws3.internet_gateway;fillColor=#F58536;gradientColor=none;" vertex="1" parent="3cQYVndDBGwSY4e2rH-t-8">
          <mxGeometry x="600.5" y="30" width="69" height="72" as="geometry" />
        </mxCell>
        <mxCell id="3cQYVndDBGwSY4e2rH-t-20" value="Nat Gateway" style="outlineConnect=0;dashed=0;verticalLabelPosition=bottom;verticalAlign=top;align=center;html=1;shape=mxgraph.aws3.vpc_nat_gateway;fillColor=#F58534;gradientColor=none;" vertex="1" parent="3cQYVndDBGwSY4e2rH-t-8">
          <mxGeometry x="462.5" y="30" width="69" height="72" as="geometry" />
        </mxCell>
        <mxCell id="3cQYVndDBGwSY4e2rH-t-10" value="Private subnet" style="points=[[0,0],[0.25,0],[0.5,0],[0.75,0],[1,0],[1,0.25],[1,0.5],[1,0.75],[1,1],[0.75,1],[0.5,1],[0.25,1],[0,1],[0,0.75],[0,0.5],[0,0.25]];outlineConnect=0;gradientColor=none;html=1;whiteSpace=wrap;fontSize=12;fontStyle=0;container=1;pointerEvents=0;collapsible=0;recursiveResize=0;shape=mxgraph.aws4.group;grIcon=mxgraph.aws4.group_security_group;grStroke=0;strokeColor=#00A4A6;fillColor=#E6F6F7;verticalAlign=top;align=left;spacingLeft=30;fontColor=#147EBA;dashed=0;" vertex="1" parent="3cQYVndDBGwSY4e2rH-t-8">
          <mxGeometry x="50" y="314.5" width="481.5" height="190" as="geometry" />
        </mxCell>
        <mxCell id="3cQYVndDBGwSY4e2rH-t-16" value="Eks Cluter" style="sketch=0;points=[[0,0,0],[0.25,0,0],[0.5,0,0],[0.75,0,0],[1,0,0],[0,1,0],[0.25,1,0],[0.5,1,0],[0.75,1,0],[1,1,0],[0,0.25,0],[0,0.5,0],[0,0.75,0],[1,0.25,0],[1,0.5,0],[1,0.75,0]];outlineConnect=0;fontColor=#232F3E;fillColor=#ED7100;strokeColor=#ffffff;dashed=0;verticalLabelPosition=bottom;verticalAlign=top;align=center;html=1;fontSize=12;fontStyle=0;aspect=fixed;shape=mxgraph.aws4.resourceIcon;resIcon=mxgraph.aws4.eks;" vertex="1" parent="3cQYVndDBGwSY4e2rH-t-10">
          <mxGeometry x="211.5" y="56" width="78" height="78" as="geometry" />
        </mxCell>
        <mxCell id="3cQYVndDBGwSY4e2rH-t-17" value="MySql DataBase" style="sketch=0;outlineConnect=0;fontColor=#232F3E;gradientColor=none;fillColor=#C925D1;strokeColor=none;dashed=0;verticalLabelPosition=bottom;verticalAlign=top;align=center;html=1;fontSize=12;fontStyle=0;aspect=fixed;pointerEvents=1;shape=mxgraph.aws4.aurora_instance_alt;" vertex="1" parent="3cQYVndDBGwSY4e2rH-t-10">
          <mxGeometry x="85.5" y="56" width="78" height="78" as="geometry" />
        </mxCell>
        <mxCell id="3cQYVndDBGwSY4e2rH-t-14" value="CloudHSM" style="sketch=0;points=[[0,0,0],[0.25,0,0],[0.5,0,0],[0.75,0,0],[1,0,0],[0,1,0],[0.25,1,0],[0.5,1,0],[0.75,1,0],[1,1,0],[0,0.25,0],[0,0.5,0],[0,0.75,0],[1,0.25,0],[1,0.5,0],[1,0.75,0]];outlineConnect=0;fontColor=#232F3E;fillColor=#DD344C;strokeColor=#ffffff;dashed=0;verticalLabelPosition=bottom;verticalAlign=top;align=center;html=1;fontSize=12;fontStyle=0;aspect=fixed;shape=mxgraph.aws4.resourceIcon;resIcon=mxgraph.aws4.cloudhsm;" vertex="1" parent="3cQYVndDBGwSY4e2rH-t-10">
          <mxGeometry x="331.5" y="56" width="80" height="80" as="geometry" />
        </mxCell>
        <mxCell id="3cQYVndDBGwSY4e2rH-t-35" value="" style="edgeStyle=orthogonalEdgeStyle;html=1;endArrow=none;elbow=vertical;startArrow=block;startFill=1;strokeColor=#545B64;rounded=0;entryX=0;entryY=0.5;entryDx=0;entryDy=0;entryPerimeter=0;" edge="1" parent="3cQYVndDBGwSY4e2rH-t-10" source="3cQYVndDBGwSY4e2rH-t-17" target="3cQYVndDBGwSY4e2rH-t-16">
          <mxGeometry width="100" relative="1" as="geometry">
            <mxPoint x="91.5" y="260" as="sourcePoint" />
            <mxPoint x="191.5" y="260" as="targetPoint" />
          </mxGeometry>
        </mxCell>
        <mxCell id="3cQYVndDBGwSY4e2rH-t-36" value="" style="edgeStyle=orthogonalEdgeStyle;html=1;endArrow=block;elbow=vertical;startArrow=none;endFill=1;strokeColor=#545B64;rounded=0;entryX=0;entryY=0.5;entryDx=0;entryDy=0;entryPerimeter=0;exitX=1;exitY=0.5;exitDx=0;exitDy=0;exitPerimeter=0;" edge="1" parent="3cQYVndDBGwSY4e2rH-t-10" source="3cQYVndDBGwSY4e2rH-t-16" target="3cQYVndDBGwSY4e2rH-t-14">
          <mxGeometry width="100" relative="1" as="geometry">
            <mxPoint x="281.5" y="260" as="sourcePoint" />
            <mxPoint x="381.5" y="260" as="targetPoint" />
          </mxGeometry>
        </mxCell>
        <mxCell id="3cQYVndDBGwSY4e2rH-t-45" value="" style="edgeStyle=orthogonalEdgeStyle;html=1;endArrow=none;elbow=vertical;startArrow=block;startFill=1;strokeColor=#545B64;rounded=0;exitX=0.5;exitY=0;exitDx=0;exitDy=0;exitPerimeter=0;entryX=0;entryY=0.5;entryDx=0;entryDy=0;entryPerimeter=0;" edge="1" parent="3cQYVndDBGwSY4e2rH-t-8" source="3cQYVndDBGwSY4e2rH-t-16" target="3cQYVndDBGwSY4e2rH-t-31">
          <mxGeometry width="100" relative="1" as="geometry">
            <mxPoint x="231.5" y="360" as="sourcePoint" />
            <mxPoint x="331.5" y="360" as="targetPoint" />
          </mxGeometry>
        </mxCell>
        <mxCell id="3cQYVndDBGwSY4e2rH-t-37" value="Private subnet" style="points=[[0,0],[0.25,0],[0.5,0],[0.75,0],[1,0],[1,0.25],[1,0.5],[1,0.75],[1,1],[0.75,1],[0.5,1],[0.25,1],[0,1],[0,0.75],[0,0.5],[0,0.25]];outlineConnect=0;gradientColor=none;html=1;whiteSpace=wrap;fontSize=12;fontStyle=0;container=1;pointerEvents=0;collapsible=0;recursiveResize=0;shape=mxgraph.aws4.group;grIcon=mxgraph.aws4.group_security_group;grStroke=0;strokeColor=#00A4A6;fillColor=#E6F6F7;verticalAlign=top;align=left;spacingLeft=30;fontColor=#147EBA;dashed=0;" vertex="1" parent="3cQYVndDBGwSY4e2rH-t-8">
          <mxGeometry x="612" y="314.5" width="498" height="190" as="geometry" />
        </mxCell>
        <mxCell id="3cQYVndDBGwSY4e2rH-t-38" value="Eks Cluter" style="sketch=0;points=[[0,0,0],[0.25,0,0],[0.5,0,0],[0.75,0,0],[1,0,0],[0,1,0],[0.25,1,0],[0.5,1,0],[0.75,1,0],[1,1,0],[0,0.25,0],[0,0.5,0],[0,0.75,0],[1,0.25,0],[1,0.5,0],[1,0.75,0]];outlineConnect=0;fontColor=#232F3E;fillColor=#ED7100;strokeColor=#ffffff;dashed=0;verticalLabelPosition=bottom;verticalAlign=top;align=center;html=1;fontSize=12;fontStyle=0;aspect=fixed;shape=mxgraph.aws4.resourceIcon;resIcon=mxgraph.aws4.eks;" vertex="1" parent="3cQYVndDBGwSY4e2rH-t-37">
          <mxGeometry x="211.5" y="56" width="78" height="78" as="geometry" />
        </mxCell>
        <mxCell id="3cQYVndDBGwSY4e2rH-t-39" value="MySql DataBase" style="sketch=0;outlineConnect=0;fontColor=#232F3E;gradientColor=none;fillColor=#C925D1;strokeColor=none;dashed=0;verticalLabelPosition=bottom;verticalAlign=top;align=center;html=1;fontSize=12;fontStyle=0;aspect=fixed;pointerEvents=1;shape=mxgraph.aws4.aurora_instance_alt;" vertex="1" parent="3cQYVndDBGwSY4e2rH-t-37">
          <mxGeometry x="85.5" y="56" width="78" height="78" as="geometry" />
        </mxCell>
        <mxCell id="3cQYVndDBGwSY4e2rH-t-41" value="" style="edgeStyle=orthogonalEdgeStyle;html=1;endArrow=none;elbow=vertical;startArrow=block;startFill=1;strokeColor=#545B64;rounded=0;entryX=0;entryY=0.5;entryDx=0;entryDy=0;entryPerimeter=0;" edge="1" parent="3cQYVndDBGwSY4e2rH-t-37" source="3cQYVndDBGwSY4e2rH-t-39" target="3cQYVndDBGwSY4e2rH-t-38">
          <mxGeometry width="100" relative="1" as="geometry">
            <mxPoint x="91.5" y="260" as="sourcePoint" />
            <mxPoint x="191.5" y="260" as="targetPoint" />
          </mxGeometry>
        </mxCell>
        <mxCell id="Y_zfew_x_hzBmH2UNu9t-2" value="" style="edgeStyle=orthogonalEdgeStyle;html=1;endArrow=block;elbow=vertical;startArrow=none;endFill=1;strokeColor=#545B64;rounded=0;entryX=0;entryY=0.5;entryDx=0;entryDy=0;entryPerimeter=0;exitX=1;exitY=0.5;exitDx=0;exitDy=0;exitPerimeter=0;" edge="1" parent="3cQYVndDBGwSY4e2rH-t-37">
          <mxGeometry width="100" relative="1" as="geometry">
            <mxPoint x="289.5" y="94.25" as="sourcePoint" />
            <mxPoint x="331.5" y="95.25" as="targetPoint" />
          </mxGeometry>
        </mxCell>
        <mxCell id="Y_zfew_x_hzBmH2UNu9t-1" value="CloudHSM" style="sketch=0;points=[[0,0,0],[0.25,0,0],[0.5,0,0],[0.75,0,0],[1,0,0],[0,1,0],[0.25,1,0],[0.5,1,0],[0.75,1,0],[1,1,0],[0,0.25,0],[0,0.5,0],[0,0.75,0],[1,0.25,0],[1,0.5,0],[1,0.75,0]];outlineConnect=0;fontColor=#232F3E;fillColor=#DD344C;strokeColor=#ffffff;dashed=0;verticalLabelPosition=bottom;verticalAlign=top;align=center;html=1;fontSize=12;fontStyle=0;aspect=fixed;shape=mxgraph.aws4.resourceIcon;resIcon=mxgraph.aws4.cloudhsm;" vertex="1" parent="3cQYVndDBGwSY4e2rH-t-37">
          <mxGeometry x="333.5" y="56" width="80" height="80" as="geometry" />
        </mxCell>
        <mxCell id="3cQYVndDBGwSY4e2rH-t-43" value="" style="edgeStyle=orthogonalEdgeStyle;html=1;endArrow=block;elbow=vertical;startArrow=none;endFill=1;strokeColor=#545B64;rounded=0;entryX=0.5;entryY=0;entryDx=0;entryDy=0;entryPerimeter=0;exitX=1;exitY=0.5;exitDx=0;exitDy=0;exitPerimeter=0;" edge="1" parent="3cQYVndDBGwSY4e2rH-t-8" source="3cQYVndDBGwSY4e2rH-t-31" target="3cQYVndDBGwSY4e2rH-t-38">
          <mxGeometry width="100" relative="1" as="geometry">
            <mxPoint x="791.5" y="340" as="sourcePoint" />
            <mxPoint x="891.5" y="340" as="targetPoint" />
          </mxGeometry>
        </mxCell>
        <mxCell id="3cQYVndDBGwSY4e2rH-t-65" value="" style="edgeStyle=orthogonalEdgeStyle;html=1;endArrow=none;elbow=vertical;startArrow=block;startFill=1;strokeColor=#545B64;rounded=0;entryX=0.5;entryY=1;entryDx=0;entryDy=0;entryPerimeter=0;exitX=1;exitY=0.5;exitDx=0;exitDy=0;exitPerimeter=0;" edge="1" parent="3cQYVndDBGwSY4e2rH-t-8" source="3cQYVndDBGwSY4e2rH-t-14" target="3cQYVndDBGwSY4e2rH-t-38">
          <mxGeometry width="100" relative="1" as="geometry">
            <mxPoint x="759.5" y="649" as="sourcePoint" />
            <mxPoint x="859.5" y="649" as="targetPoint" />
            <Array as="points">
              <mxPoint x="643" y="411" />
              <mxPoint x="643" y="479" />
              <mxPoint x="863" y="479" />
            </Array>
          </mxGeometry>
        </mxCell>
        <mxCell id="3cQYVndDBGwSY4e2rH-t-78" value="3" style="rounded=1;whiteSpace=wrap;html=1;fillColor=#007CBD;strokeColor=none;fontColor=#FFFFFF;fontStyle=1;fontSize=22;labelBackgroundColor=none;" vertex="1" parent="3cQYVndDBGwSY4e2rH-t-8">
          <mxGeometry x="729.5" y="79" width="40" height="38" as="geometry" />
        </mxCell>
        <mxCell id="3cQYVndDBGwSY4e2rH-t-79" value="4" style="rounded=1;whiteSpace=wrap;html=1;fillColor=#007CBD;strokeColor=none;fontColor=#FFFFFF;fontStyle=1;fontSize=22;labelBackgroundColor=none;" vertex="1" parent="3cQYVndDBGwSY4e2rH-t-8">
          <mxGeometry x="879.5" y="314.5" width="40" height="38" as="geometry" />
        </mxCell>
        <mxCell id="3cQYVndDBGwSY4e2rH-t-80" value="5" style="rounded=1;whiteSpace=wrap;html=1;fillColor=#007CBD;strokeColor=none;fontColor=#FFFFFF;fontStyle=1;fontSize=22;labelBackgroundColor=none;" vertex="1" parent="3cQYVndDBGwSY4e2rH-t-8">
          <mxGeometry x="399.5" y="329" width="40" height="38" as="geometry" />
        </mxCell>
        <mxCell id="3cQYVndDBGwSY4e2rH-t-49" value="Cognito" style="sketch=0;points=[[0,0,0],[0.25,0,0],[0.5,0,0],[0.75,0,0],[1,0,0],[0,1,0],[0.25,1,0],[0.5,1,0],[0.75,1,0],[1,1,0],[0,0.25,0],[0,0.5,0],[0,0.75,0],[1,0.25,0],[1,0.5,0],[1,0.75,0]];outlineConnect=0;fontColor=#232F3E;fillColor=#DD344C;strokeColor=#ffffff;dashed=0;verticalLabelPosition=bottom;verticalAlign=top;align=center;html=1;fontSize=12;fontStyle=0;aspect=fixed;shape=mxgraph.aws4.resourceIcon;resIcon=mxgraph.aws4.cognito;" vertex="1" parent="3cQYVndDBGwSY4e2rH-t-4">
          <mxGeometry x="401.5" y="49.5" width="78" height="78" as="geometry" />
        </mxCell>
        <mxCell id="3cQYVndDBGwSY4e2rH-t-15" value="Api Gateway" style="sketch=0;points=[[0,0,0],[0.25,0,0],[0.5,0,0],[0.75,0,0],[1,0,0],[0,1,0],[0.25,1,0],[0.5,1,0],[0.75,1,0],[1,1,0],[0,0.25,0],[0,0.5,0],[0,0.75,0],[1,0.25,0],[1,0.5,0],[1,0.75,0]];outlineConnect=0;fontColor=#232F3E;fillColor=#E7157B;strokeColor=#ffffff;dashed=0;verticalLabelPosition=bottom;verticalAlign=top;align=center;html=1;fontSize=12;fontStyle=0;aspect=fixed;shape=mxgraph.aws4.resourceIcon;resIcon=mxgraph.aws4.api_gateway;" vertex="1" parent="3cQYVndDBGwSY4e2rH-t-4">
          <mxGeometry x="554" y="45.5" width="86" height="86" as="geometry" />
        </mxCell>
        <mxCell id="3cQYVndDBGwSY4e2rH-t-54" value="" style="edgeStyle=orthogonalEdgeStyle;html=1;endArrow=none;elbow=vertical;startArrow=block;startFill=1;strokeColor=#545B64;rounded=0;exitX=0.5;exitY=0;exitDx=0;exitDy=0;exitPerimeter=0;entryX=0.5;entryY=1;entryDx=0;entryDy=0;entryPerimeter=0;" edge="1" parent="3cQYVndDBGwSY4e2rH-t-4" source="3cQYVndDBGwSY4e2rH-t-31" target="3cQYVndDBGwSY4e2rH-t-15">
          <mxGeometry width="100" relative="1" as="geometry">
            <mxPoint x="471.5" y="165.5" as="sourcePoint" />
            <mxPoint x="571.5" y="165.5" as="targetPoint" />
          </mxGeometry>
        </mxCell>
        <mxCell id="3cQYVndDBGwSY4e2rH-t-55" value="" style="edgeStyle=orthogonalEdgeStyle;html=1;endArrow=none;elbow=vertical;startArrow=block;startFill=1;strokeColor=#545B64;rounded=0;exitX=1;exitY=0.5;exitDx=0;exitDy=0;exitPerimeter=0;entryX=0;entryY=0.5;entryDx=0;entryDy=0;entryPerimeter=0;" edge="1" parent="3cQYVndDBGwSY4e2rH-t-4" source="3cQYVndDBGwSY4e2rH-t-49" target="3cQYVndDBGwSY4e2rH-t-15">
          <mxGeometry width="100" relative="1" as="geometry">
            <mxPoint x="471.5" y="35.5" as="sourcePoint" />
            <mxPoint x="571.5" y="35.5" as="targetPoint" />
          </mxGeometry>
        </mxCell>
        <mxCell id="3cQYVndDBGwSY4e2rH-t-48" value="&amp;nbsp;CloudWatch" style="sketch=0;points=[[0,0,0],[0.25,0,0],[0.5,0,0],[0.75,0,0],[1,0,0],[0,1,0],[0.25,1,0],[0.5,1,0],[0.75,1,0],[1,1,0],[0,0.25,0],[0,0.5,0],[0,0.75,0],[1,0.25,0],[1,0.5,0],[1,0.75,0]];points=[[0,0,0],[0.25,0,0],[0.5,0,0],[0.75,0,0],[1,0,0],[0,1,0],[0.25,1,0],[0.5,1,0],[0.75,1,0],[1,1,0],[0,0.25,0],[0,0.5,0],[0,0.75,0],[1,0.25,0],[1,0.5,0],[1,0.75,0]];outlineConnect=0;fontColor=#232F3E;fillColor=#E7157B;strokeColor=#ffffff;dashed=0;verticalLabelPosition=bottom;verticalAlign=top;align=center;html=1;fontSize=12;fontStyle=0;aspect=fixed;shape=mxgraph.aws4.resourceIcon;resIcon=mxgraph.aws4.cloudwatch_2;" vertex="1" parent="3cQYVndDBGwSY4e2rH-t-4">
          <mxGeometry x="241.5" y="45.5" width="78" height="78" as="geometry" />
        </mxCell>
        <mxCell id="3cQYVndDBGwSY4e2rH-t-56" value="CloudTrail" style="sketch=0;points=[[0,0,0],[0.25,0,0],[0.5,0,0],[0.75,0,0],[1,0,0],[0,1,0],[0.25,1,0],[0.5,1,0],[0.75,1,0],[1,1,0],[0,0.25,0],[0,0.5,0],[0,0.75,0],[1,0.25,0],[1,0.5,0],[1,0.75,0]];points=[[0,0,0],[0.25,0,0],[0.5,0,0],[0.75,0,0],[1,0,0],[0,1,0],[0.25,1,0],[0.5,1,0],[0.75,1,0],[1,1,0],[0,0.25,0],[0,0.5,0],[0,0.75,0],[1,0.25,0],[1,0.5,0],[1,0.75,0]];outlineConnect=0;fontColor=#232F3E;fillColor=#E7157B;strokeColor=#ffffff;dashed=0;verticalLabelPosition=bottom;verticalAlign=top;align=center;html=1;fontSize=12;fontStyle=0;aspect=fixed;shape=mxgraph.aws4.resourceIcon;resIcon=mxgraph.aws4.cloudtrail;" vertex="1" parent="3cQYVndDBGwSY4e2rH-t-4">
          <mxGeometry x="723.5" y="45.5" width="78" height="78" as="geometry" />
        </mxCell>
        <mxCell id="3cQYVndDBGwSY4e2rH-t-57" value="GuardDuty" style="sketch=0;points=[[0,0,0],[0.25,0,0],[0.5,0,0],[0.75,0,0],[1,0,0],[0,1,0],[0.25,1,0],[0.5,1,0],[0.75,1,0],[1,1,0],[0,0.25,0],[0,0.5,0],[0,0.75,0],[1,0.25,0],[1,0.5,0],[1,0.75,0]];outlineConnect=0;fontColor=#232F3E;fillColor=#DD344C;strokeColor=#ffffff;dashed=0;verticalLabelPosition=bottom;verticalAlign=top;align=center;html=1;fontSize=12;fontStyle=0;aspect=fixed;shape=mxgraph.aws4.resourceIcon;resIcon=mxgraph.aws4.guardduty;" vertex="1" parent="3cQYVndDBGwSY4e2rH-t-4">
          <mxGeometry x="883.5" y="45.5" width="78" height="78" as="geometry" />
        </mxCell>
        <mxCell id="3cQYVndDBGwSY4e2rH-t-77" value="2" style="rounded=1;whiteSpace=wrap;html=1;fillColor=#007CBD;strokeColor=none;fontColor=#FFFFFF;fontStyle=1;fontSize=22;labelBackgroundColor=none;" vertex="1" parent="3cQYVndDBGwSY4e2rH-t-4">
          <mxGeometry x="610" y="-10" width="40" height="38" as="geometry" />
        </mxCell>
        <mxCell id="3cQYVndDBGwSY4e2rH-t-67" value="" style="group" connectable="0" vertex="1" parent="1">
          <mxGeometry x="787.5" y="1229" width="591" height="180" as="geometry" />
        </mxCell>
        <mxCell id="jZVaUwOg5UY3L9NAnvdq-59" value="Actores" style="swimlane;fontSize=14;align=center;swimlaneFillColor=#f4f4f4;fillColor=#f4f4f4;startSize=33;container=1;pointerEvents=0;collapsible=0;recursiveResize=0;" vertex="1" parent="3cQYVndDBGwSY4e2rH-t-67">
          <mxGeometry width="210" height="180" as="geometry" />
        </mxCell>
        <mxCell id="jZVaUwOg5UY3L9NAnvdq-60" value="User" style="outlineConnect=0;fontColor=#232F3E;gradientColor=none;fillColor=#232F3E;strokeColor=none;dashed=0;verticalLabelPosition=bottom;verticalAlign=top;align=center;html=1;fontSize=12;fontStyle=0;aspect=fixed;pointerEvents=1;shape=mxgraph.aws4.user;labelBackgroundColor=none;" vertex="1" parent="jZVaUwOg5UY3L9NAnvdq-59">
          <mxGeometry x="16" y="54" width="78" height="78" as="geometry" />
        </mxCell>
        <mxCell id="jZVaUwOg5UY3L9NAnvdq-61" value="Payers" style="outlineConnect=0;fontColor=#232F3E;gradientColor=none;fillColor=#232F3E;strokeColor=none;dashed=0;verticalLabelPosition=bottom;verticalAlign=top;align=center;html=1;fontSize=12;fontStyle=0;aspect=fixed;pointerEvents=1;shape=mxgraph.aws4.corporate_data_center;labelBackgroundColor=none;" vertex="1" parent="jZVaUwOg5UY3L9NAnvdq-59">
          <mxGeometry x="130" y="54" width="53" height="78" as="geometry" />
        </mxCell>
        <mxCell id="jZVaUwOg5UY3L9NAnvdq-62" value="Canales de comunicacion" style="swimlane;fontSize=14;align=center;swimlaneFillColor=#f4f4f4;fillColor=#f4f4f4;startSize=33;container=1;pointerEvents=0;collapsible=0;recursiveResize=0;" vertex="1" parent="3cQYVndDBGwSY4e2rH-t-67">
          <mxGeometry x="212.5" width="378.5" height="180" as="geometry" />
        </mxCell>
        <mxCell id="jZVaUwOg5UY3L9NAnvdq-65" value="Mobile / Web" style="outlineConnect=0;fontColor=#232F3E;gradientColor=none;strokeColor=none;fillColor=#277116;dashed=0;verticalLabelPosition=bottom;verticalAlign=top;align=center;html=1;fontSize=12;fontStyle=0;shape=mxgraph.aws4.mobile_client;labelBackgroundColor=none;" vertex="1" parent="jZVaUwOg5UY3L9NAnvdq-62">
          <mxGeometry x="67.5" y="40" width="53" height="100" as="geometry" />
        </mxCell>
        <mxCell id="jZVaUwOg5UY3L9NAnvdq-95" value="API" style="outlineConnect=0;fontColor=#232F3E;gradientColor=none;fillColor=#277116;strokeColor=none;dashed=0;verticalLabelPosition=bottom;verticalAlign=top;align=center;html=1;fontSize=12;fontStyle=0;aspect=fixed;pointerEvents=1;shape=mxgraph.aws4.external_sdk;labelBackgroundColor=none;" vertex="1" parent="jZVaUwOg5UY3L9NAnvdq-62">
          <mxGeometry x="242" y="61" width="68" height="78" as="geometry" />
        </mxCell>
        <mxCell id="3cQYVndDBGwSY4e2rH-t-68" value="" style="edgeStyle=orthogonalEdgeStyle;html=1;endArrow=none;elbow=vertical;startArrow=block;startFill=1;strokeColor=#545B64;rounded=0;exitX=0.5;exitY=0;exitDx=0;exitDy=0;exitPerimeter=0;" edge="1" parent="1" source="3cQYVndDBGwSY4e2rH-t-15">
          <mxGeometry width="100" relative="1" as="geometry">
            <mxPoint x="994" y="1449" as="sourcePoint" />
            <mxPoint x="1084" y="1399" as="targetPoint" />
          </mxGeometry>
        </mxCell>
        <mxCell id="jZVaUwOg5UY3L9NAnvdq-101" value="1" style="rounded=1;whiteSpace=wrap;html=1;fillColor=#007CBD;strokeColor=none;fontColor=#FFFFFF;fontStyle=1;fontSize=22;labelBackgroundColor=none;arcSize=0;" vertex="1" parent="1">
          <mxGeometry x="1064" y="1180" width="40" height="38" as="geometry" />
        </mxCell>
      </root>
    </mxGraphModel>
  </diagram>
</mxfile>
